<svg xmlns="http://www.w3.org/2000/svg" width="287.386" height="287.386" viewBox="0 0 287.386 287.386"><path d="M62.743 155.437v98.42c0 5.867 4.74 10.605 10.605 10.605 5.854 0 10.605-4.738 10.605-10.605v-98.42c0-5.856-4.75-10.605-10.605-10.605-5.864 0-10.605 4.744-10.605 10.605z"/><path d="M29.456 264.582h23.35v-116.85c.065-.56.167-1.12.167-1.693 0-50.413 40.69-91.42 90.698-91.42 50.003 0 90.693 41.007 90.693 91.42 0 .77.113 1.517.228 2.262v116.28h23.355c16.254 0 29.442-13.64 29.442-30.47v-60.935c0-13.878-8.99-25.57-21.26-29.25-1.13-66.97-55.61-121.123-122.45-121.123-66.86 0-121.348 54.158-122.466 121.15C8.957 147.638 0 159.32 0 173.187v60.926c0 16.82 13.187 30.47 29.456 30.47z"/><path d="M203.454 155.437v98.42c0 5.867 4.748 10.605 10.604 10.605s10.604-4.738 10.604-10.605v-98.42c0-5.856-4.748-10.605-10.604-10.605-5.867 0-10.604 4.744-10.604 10.605z"/></svg>